<svg width="153" height="56" viewBox="0 0 153 56" fill="none" xmlns="http://www.w3.org/2000/svg">
<path d="M46.6318 109.96L55.3555 76.2495C57.8193 66.7284 65.1058 59.2027 74.5425 56.4328L84.9097 53.3898C91.5325 51.4458 95.8922 45.1332 95.3648 38.2511V38.2511C95.1159 35.0023 95.9598 31.7634 97.7626 29.0491L107.818 13.9107C115.632 2.14536 127.347 -6.48604 140.899 -10.464L153.5 -14.1626" stroke="white" stroke-opacity="0.2"/>
<path d="M52.6062 116.174L61.3298 82.4627C63.7937 72.9415 71.0802 65.4158 80.5169 62.6459L90.8841 59.6029C97.5069 57.659 101.867 51.3463 101.339 44.4643V44.4643C101.09 41.2154 101.934 37.9765 103.737 35.2623L113.792 20.1238C121.606 8.35849 133.321 -0.272906 146.873 -4.25084L159.474 -7.94945" stroke="white" stroke-opacity="0.2"/>
<path d="M57.0994 124.528L65.823 90.8167C68.2868 81.2955 75.5734 73.7698 85.0101 70.9999L95.3772 67.9569C102 66.013 106.36 59.7003 105.832 52.8183V52.8183C105.583 49.5694 106.427 46.3305 108.23 43.6163L118.285 28.4778C126.1 16.7125 137.814 8.0811 151.366 4.10317L163.967 0.404556" stroke="white" stroke-opacity="0.2"/>
<path d="M62.594 131.882L71.3176 98.1707C73.7815 88.6495 81.068 81.1238 90.5047 78.3539L100.872 75.3109C107.495 73.367 111.854 67.0543 111.327 60.1723V60.1723C111.078 56.9234 111.922 53.6845 113.725 50.9703L123.78 35.8318C131.594 24.0665 143.309 15.4351 156.861 11.4572L169.462 7.75856" stroke="white" stroke-opacity="0.2"/>
<path d="M67.0889 139.236L75.8125 105.525C78.2763 96.0035 85.5629 88.4779 94.9996 85.7079L105.367 82.6649C111.99 80.721 116.349 74.4083 115.822 67.5263V67.5263C115.573 64.2774 116.417 61.0385 118.22 58.3243L128.275 43.1858C136.089 31.4205 147.804 22.7891 161.356 18.8112L173.957 15.1126" stroke="white" stroke-opacity="0.2"/>
<path d="M70.583 147.59L79.3066 113.879C81.7705 104.358 89.057 96.8319 98.4937 94.062L108.861 91.0189C115.484 89.075 119.843 82.7623 119.316 75.8803V75.8803C119.067 72.6314 119.911 69.3925 121.714 66.6783L131.769 51.5398C139.583 39.7745 151.298 31.1431 164.85 27.1652L177.451 23.4666" stroke="white" stroke-opacity="0.2"/>
<path d="M41.6575 101.747L50.3811 68.0364C52.845 58.5152 60.1315 50.9896 69.5682 48.2197L79.9354 45.1767C86.5582 43.2327 90.9178 36.92 90.3905 30.038V30.038C90.1415 26.7891 90.9855 23.5502 92.7882 20.836L102.843 5.69754C110.658 -6.06778 122.372 -14.6992 135.925 -18.6771L148.525 -22.3757" stroke="white" stroke-opacity="0.2"/>
<path d="M33.6575 95.7473L42.3811 62.0364C44.845 52.5152 52.1315 44.9896 61.5682 42.2197L71.9354 39.1767C78.5582 37.2327 82.9178 30.92 82.3905 24.038V24.038C82.1415 20.7891 82.9855 17.5502 84.7882 14.836L94.8432 -0.302465C102.658 -12.0678 114.372 -20.6992 127.925 -24.6771L140.525 -28.3757" stroke="white" stroke-opacity="0.2"/>
<path d="M26.6575 88.7473L35.3811 55.0364C37.845 45.5152 45.1315 37.9896 54.5682 35.2197L64.9354 32.1767C71.5582 30.2327 75.9178 23.92 75.3905 17.038V17.038C75.1415 13.7891 75.9855 10.5502 77.7882 7.83601L87.8432 -7.30246C95.6577 -19.0678 107.372 -27.6992 120.925 -31.6771L133.525 -35.3757" stroke="white" stroke-opacity="0.2"/>
<path d="M80.8044 -7.39307C63.804 2.60693 72.0561 15.9505 64.804 22.1069C55.5561 28.4505 41.9782 24.187 38.8048 13.607C35.6314 3.02696 44.4183 -14.9082 51.5598 -17.0502C58.7013 -19.1923 77.631 -17.9731 80.8044 -7.39307Z" stroke="white" stroke-opacity="0.2"/>
<path d="M73.0069 -7.21379C61.4629 -0.423376 67.0665 8.63743 62.1419 12.8179C55.8623 17.1254 46.6423 14.2304 44.4874 7.04611C42.3326 -0.138162 48.2992 -12.3169 53.1486 -13.7714C57.998 -15.2259 70.8521 -14.3981 73.0069 -7.21379Z" stroke="white" stroke-opacity="0.2"/>
<path d="M64.5621 -4.36979C59.4228 -1.34674 61.9175 2.68708 59.7251 4.54821C56.9294 6.46589 52.8247 5.17703 51.8654 1.97863C50.9061 -1.21976 53.5624 -6.64165 55.7213 -7.2892C57.8802 -7.93675 63.6028 -7.56818 64.5621 -4.36979Z" stroke="white" stroke-opacity="0.2"/>
</svg>
