<svg width="24" height="24" viewBox="0 0 24 24" fill="none" xmlns="http://www.w3.org/2000/svg">
<path d="M9.37489 10.9153C9.48893 10.8495 9.58363 10.7548 9.64945 10.6407C9.71528 10.5267 9.74992 10.3973 9.74989 10.2656V3.51562C9.74922 3.39605 9.71997 3.27837 9.66458 3.1724C9.60919 3.06643 9.52926 2.97523 9.43147 2.90643C9.33367 2.83762 9.22084 2.7932 9.10239 2.77686C8.98393 2.76052 8.86329 2.77274 8.75052 2.8125C6.56143 3.58726 4.7205 5.11748 3.55866 7.12807C2.39681 9.13865 1.99026 11.4977 2.41208 13.7812C2.43395 13.8993 2.48385 14.0104 2.55759 14.1052C2.63133 14.2 2.72675 14.2757 2.83583 14.3259C2.93413 14.3719 3.04137 14.3956 3.14989 14.3953C3.28153 14.3954 3.41086 14.3608 3.52489 14.295L9.37489 10.9153ZM8.24989 4.65188V9.8325L3.76114 12.4228C3.74989 12.2812 3.74989 12.1388 3.74989 12C3.75122 10.4797 4.17204 8.98928 4.96601 7.69279C5.75998 6.3963 6.89631 5.34404 8.24989 4.65188ZM20.4693 7.17375C20.4608 7.15687 20.4524 7.13906 20.4421 7.12219C20.4318 7.10531 20.4233 7.09125 20.413 7.07625C19.5534 5.60794 18.3247 4.39001 16.8488 3.54338C15.373 2.69675 13.7013 2.25087 11.9999 2.25C11.801 2.25 11.6102 2.32902 11.4696 2.46967C11.3289 2.61032 11.2499 2.80109 11.2499 3V11.6091L3.86146 15.9122C3.77572 15.9619 3.70068 16.0281 3.64068 16.107C3.58068 16.1858 3.5369 16.2758 3.51188 16.3717C3.48687 16.4676 3.4811 16.5675 3.49492 16.6656C3.50874 16.7638 3.54187 16.8582 3.59239 16.9434C4.6764 18.7894 6.33777 20.2272 8.32013 21.0351C10.3025 21.8431 12.4956 21.9761 14.5611 21.4138C16.6266 20.8514 18.4496 19.625 19.7489 17.9236C21.0481 16.2223 21.7513 14.1407 21.7499 12C21.752 10.307 21.3105 8.64297 20.4693 7.17375ZM12.7499 3.78375C13.9394 3.89324 15.091 4.25959 16.1251 4.85749C17.1592 5.4554 18.0512 6.27063 18.7396 7.24688L12.7499 10.7353V3.78375ZM11.9999 20.25C10.6906 20.2466 9.4007 19.9333 8.23578 19.3356C7.07087 18.7379 6.06404 17.8729 5.29771 16.8113L12.3665 12.6947L12.3871 12.6816L19.4905 8.54437C20.0703 9.80132 20.3245 11.184 20.2297 12.5649C20.135 13.9459 19.6942 15.2808 18.9481 16.4468C18.202 17.6127 17.1745 18.5722 15.9603 19.2368C14.7461 19.9014 13.3841 20.2499 11.9999 20.25Z" fill="#929292"/>
</svg>
