<svg width="342" height="529" viewBox="0 0 342 529" fill="none" xmlns="http://www.w3.org/2000/svg">
<path d="M145.166 476.193L60.2483 480.409C-3.11361 483.557 -46.5821 407.071 -18.0781 342.7L20.1647 256.416C65.7116 153.683 192.02 147.388 247.602 245.074L294.278 327.141C329.076 388.365 293.446 468.83 230.084 471.977L145.166 476.193Z" fill="#F2994A"/>
<path d="M24.4995 313.602C18.0268 317.283 14.5232 323.934 11.8509 330.645C9.59438 336.286 8.34733 342.224 7.99103 348.281C7.27843 361.227 11.0789 373.935 16.3641 385.574C22.7774 399.767 31.5068 412.89 40.5924 425.48C43.1459 428.983 45.7588 432.487 48.3716 435.99C49.7374 437.772 51.1033 439.553 52.4691 441.335C53.538 442.76 54.6663 443.888 56.329 444.601C61.911 447.036 68.6213 442.82 68.6213 436.644C68.6213 434.387 67.9088 431.952 67.4931 429.696C67.018 427.32 66.6023 425.005 66.1272 422.629C65.2365 417.997 64.3457 413.366 63.3955 408.734C61.6734 400.123 59.9514 391.512 58.4074 382.843C58.1105 381.299 56.2696 380.408 54.8444 380.824C53.2411 381.299 52.5285 382.843 52.8254 384.387C55.4976 398.995 58.5261 413.544 61.3171 428.152C61.6734 430.111 62.0892 432.071 62.4455 434.031C62.683 435.456 63.1581 436.644 62.5642 437.891C62.1486 438.841 60.5452 439.613 59.5951 439.494C58.5856 439.375 58.1699 439.019 57.5167 438.247C56.0915 436.584 54.8444 434.803 53.5379 433.021C51.1626 429.874 48.7873 426.727 46.4713 423.52C37.9201 411.762 29.7252 399.589 23.3119 386.465C18.2049 376.013 14.1669 364.612 13.87 352.854C13.6918 346.737 14.5826 340.74 16.5422 334.98C18.6206 328.863 21.7086 321.915 27.5875 318.59C30.6754 316.749 27.7656 311.701 24.4995 313.602Z" fill="#494949"/>
<path d="M88.1585 102.791L104.192 108.492C107.161 109.561 107.874 113.48 105.498 115.499L92.5529 126.544C84.358 133.492 71.7687 128.979 69.8091 118.468C67.8495 107.898 78.0633 99.2282 88.1585 102.791Z" fill="#2BAA58"/>
<path d="M116.365 93.2897L108.289 109.501C107.102 111.936 103.717 112.114 102.232 109.858L92.2559 94.7743C86.3176 85.8074 92.3152 73.812 103.064 73.1588C113.812 72.5056 121.175 83.729 116.365 93.2897Z" fill="#2BAA58"/>
<path d="M102.173 113.362C120.701 122.803 134.537 140.143 138.515 160.809C139.703 166.866 139.941 173.101 139.406 179.277C139.287 180.821 140.832 182.187 142.316 182.187C143.979 182.187 145.107 180.821 145.226 179.277C146.295 165.856 143.622 152.198 137.447 140.203C132.043 129.751 123.967 120.903 114.465 114.074C111.496 111.936 108.349 110.036 105.023 108.314C101.817 106.651 98.8475 111.639 102.173 113.362Z" fill="#2BAA58"/>
<path d="M107.636 304.279C123.411 304.279 136.2 291.491 136.2 275.715C136.2 259.94 123.411 247.152 107.636 247.152C91.8611 247.152 79.0729 259.94 79.0729 275.715C79.0729 291.491 91.8611 304.279 107.636 304.279Z" fill="white"/>
<path d="M116.781 283.079C125.308 283.079 132.221 276.166 132.221 267.639C132.221 259.112 125.308 252.199 116.781 252.199C108.254 252.199 101.342 259.112 101.342 267.639C101.342 276.166 108.254 283.079 116.781 283.079Z" fill="#494949"/>
<path d="M164.585 308.317C180.36 308.317 193.148 295.528 193.148 279.753C193.148 263.978 180.36 251.19 164.585 251.19C148.81 251.19 136.021 263.978 136.021 279.753C136.021 295.528 148.81 308.317 164.585 308.317Z" fill="white"/>
<path d="M169.573 284.088C178.1 284.088 185.013 277.176 185.013 268.649C185.013 260.122 178.1 253.209 169.573 253.209C161.046 253.209 154.133 260.122 154.133 268.649C154.133 277.176 161.046 284.088 169.573 284.088Z" fill="#494949"/>
<path d="M79.1322 192.4C80.4386 191.034 81.5669 190.203 82.8139 189.313C85.5455 187.472 88.5147 186.046 91.7214 185.334C98.8474 183.671 106.27 186.225 111.377 191.035C114.109 193.588 118.266 189.491 115.534 186.878C109.002 180.702 99.9757 177.792 91.0683 179.514C85.1299 180.643 79.251 183.908 75.0348 188.243C72.3625 190.975 76.5193 195.073 79.1322 192.4Z" fill="#494949"/>
<path d="M205.856 188.185C201.402 183.85 195.404 180.702 189.288 179.693C180.44 178.327 171.651 181.355 165.357 187.65C162.684 190.322 166.782 194.42 169.513 191.807C174.442 186.937 181.628 184.206 188.694 185.512C192.02 186.166 195.108 187.472 197.899 189.313C199.561 190.382 200.274 190.916 201.758 192.341C204.431 194.954 208.528 190.797 205.856 188.185Z" fill="#494949"/>
<path d="M153.539 319.481C153.005 320.312 152.47 321.084 151.877 321.915C150.808 323.4 153.48 319.956 152.589 321.025C152.352 321.321 152.055 321.678 151.817 321.975C151.342 322.569 150.808 323.162 150.273 323.697C149.679 324.291 149.085 324.884 148.432 325.478C148.076 325.835 147.66 326.191 147.304 326.488C145.582 327.973 149.026 325.241 147.72 326.191C145.998 327.438 144.216 328.507 142.316 329.338C143.088 328.982 143.86 328.685 144.632 328.329C142.672 329.16 140.713 329.695 138.575 329.991C139.465 329.873 140.297 329.754 141.188 329.635C139.287 329.873 137.446 329.813 135.606 329.576C136.496 329.694 137.328 329.813 138.218 329.932C136.377 329.635 134.537 329.16 132.815 328.447C133.587 328.804 134.358 329.101 135.13 329.457C133.408 328.744 131.746 327.794 130.202 326.725C129.786 326.428 129.37 326.072 128.955 325.835C129.37 326.072 131.092 327.497 129.786 326.428C129.192 325.894 128.539 325.359 128.004 324.825C127.054 323.875 126.104 322.925 125.214 321.856C124.917 321.5 124.62 321.025 124.263 320.668C124.679 321.203 125.154 321.797 125.57 322.331C125.51 322.272 125.451 322.153 125.392 322.094C125.273 322.034 125.154 321.797 125.095 321.678C123.551 319.54 121.888 317.937 119.275 317.224C116.959 316.571 113.871 316.868 111.793 318.234C107.755 320.847 105.083 327.141 108.289 331.536C113.693 338.84 120.522 344.837 129.252 347.747C141.306 351.785 154.014 347.094 162.862 338.602C165.772 335.811 168.326 332.545 170.464 329.16C173.195 324.885 171.473 318.234 166.96 315.858C162.031 313.483 156.508 314.908 153.539 319.481Z" fill="#EA7671"/>
<path d="M159.418 322.925C158.884 323.756 158.349 324.528 157.756 325.36C157.696 325.478 157.577 325.597 157.518 325.657C157.221 326.013 157.756 325.359 157.459 325.716C157.221 326.013 157.043 326.25 156.805 326.547C156.271 327.201 155.736 327.794 155.143 328.388C152.53 331.12 149.561 333.554 146.057 335.098C138.575 338.365 130.439 336.167 124.441 331.001C123.135 329.873 121.888 328.685 120.76 327.379C120.344 326.904 119.928 326.429 119.572 325.953C119.038 325.3 119.75 326.25 119.394 325.775C119.275 325.597 119.156 325.478 119.038 325.3C118.087 324.053 116.484 323.4 115.059 324.231C113.812 324.944 113.099 326.963 113.99 328.21C118.266 334.029 123.966 339.018 130.914 341.334C140.712 344.6 150.689 340.859 157.874 333.97C160.368 331.595 162.565 328.804 164.466 325.894C166.544 322.687 161.497 319.778 159.418 322.925Z" fill="#494949"/>
<path d="M97.7192 600.185L57.6355 601.729C54.0131 601.848 51.1627 599.294 52.1128 596.8L53.7162 592.643C54.6664 590.268 54.7851 587.655 54.0725 585.161L20.2834 463.663L120.285 477.44C123.848 514.97 119.81 553.391 109.833 592.525C108.764 596.8 103.836 599.948 97.7192 600.185Z" fill="#F2994A"/>
<path d="M208.944 600.838L248.79 601.729C252.353 601.789 254.491 599.235 252.888 596.8L250.156 592.762C248.553 590.446 247.721 587.893 247.721 585.458L247.305 465.92L143.622 466.514C150.57 503.331 174.264 555.351 194.929 593.534C197.186 597.691 202.887 600.66 208.944 600.838Z" fill="#F2994A"/>
<path d="M306.808 218.173C285.251 260.098 270.168 295.074 255.916 306.119C250.987 309.92 247.959 315.799 248.315 321.975C248.79 330.051 254.194 335.098 265.12 336.761C268.268 337.236 271.475 336.939 274.444 335.811C312.805 321.44 317.675 277.259 317.853 220.786C317.793 214.669 309.599 212.71 306.808 218.173Z" fill="#F2994A"/>
<path d="M312.093 14.1322C304.788 14.1322 297.841 16.9825 292.615 21.7331C293.506 23.1583 294.456 24.5836 295.287 25.9494C298.85 22.4458 303.541 20.0109 308.708 19.2983C319.931 17.695 330.561 24.5242 334.539 34.9163C337.687 44.3582 335.074 54.8096 327.413 61.2824C323.732 64.4297 319.159 66.2707 314.468 66.7458C314.765 67.6959 315.002 68.6459 315.299 69.5366C315.477 70.1898 315.537 70.9024 315.537 71.615C319.516 71.14 323.435 69.8335 326.938 67.6957C338.399 60.6885 343.803 46.2586 339.29 33.4912C339.231 33.3724 339.231 33.313 339.171 33.1942C339.171 33.0755 339.112 32.9567 339.053 32.8973C334.955 21.7927 323.969 14.0728 312.093 14.1322Z" fill="#DB761B" stroke="#DB761B" stroke-width="1.5" stroke-miterlimit="10"/>
<path d="M317.2 71.0212C317.437 72.1494 317.615 73.2778 317.853 74.4061C317.972 75.2375 317.972 76.0689 317.853 76.8409C317.497 79.5131 315.656 81.8883 313.043 82.8978L247.187 108.848C243.861 110.155 240.001 109.026 237.982 106.057C237.864 105.879 237.804 105.76 237.685 105.582C217.376 102.138 193.029 78.9193 168.801 72.3871C167.257 71.9715 166.723 70.071 167.851 68.8833L172.245 64.3704C176.64 59.8573 183.231 58.4319 189.11 60.6291C200.274 64.8453 211.616 72.2089 222.187 78.2066C215.536 63.4795 212.507 44.4176 213.398 29.5718C213.635 26.0088 214.882 22.5646 218.208 21.2581L223.255 19.2983C226.521 17.9919 264.349 4.51211 267.615 3.20568L272.128 1.42418C275.691 -0.00101297 278.66 2.43347 281.688 4.74941C295.94 15.7353 313.934 54.4532 317.2 71.0212Z" fill="#DB761B" stroke="#DB761B" stroke-width="1.5" stroke-miterlimit="10"/>
<path d="M168.741 90.2613C168.92 93.468 166.722 96.1403 163.872 96.2591C161.022 96.3779 158.527 93.9433 158.409 90.796C158.29 87.6487 161.912 83.3731 163.219 83.3137C164.466 83.2543 168.563 87.0546 168.741 90.2613Z" fill="#A0B4D8"/>
<path d="M177.352 111.758C177.53 114.965 175.333 117.637 172.483 117.756C169.632 117.875 167.138 115.44 167.019 112.293C166.841 109.086 170.523 104.87 171.829 104.81C173.077 104.751 177.174 108.552 177.352 111.758Z" fill="#A0B4D8"/>
<path d="M161.853 108.908C162.031 112.115 159.834 114.787 156.984 114.905C154.133 115.024 151.639 112.59 151.52 109.442C151.342 106.236 155.024 102.019 156.33 101.96C157.637 101.901 161.734 105.761 161.853 108.908Z" fill="#A0B4D8"/>
</svg>
