<svg width="13" height="13" viewBox="0 0 13 13" fill="none" xmlns="http://www.w3.org/2000/svg">
<path d="M12.2075 3.08572L9.41438 0.293218C9.32152 0.200335 9.21127 0.126655 9.08993 0.0763865C8.96859 0.0261175 8.83853 0.000244141 8.70719 0.000244141C8.57585 0.000244141 8.4458 0.0261175 8.32446 0.0763865C8.20312 0.126655 8.09287 0.200335 8 0.293218L0.29313 8.00009C0.199867 8.09262 0.125926 8.20275 0.0756045 8.3241C0.025283 8.44546 -0.000414649 8.5756 5.05934e-06 8.70697V11.5001C5.05934e-06 11.7653 0.105362 12.0197 0.292898 12.2072C0.480435 12.3947 0.734789 12.5001 1.00001 12.5001H11.5C11.6326 12.5001 11.7598 12.4474 11.8536 12.3536C11.9473 12.2599 12 12.1327 12 12.0001C12 11.8675 11.9473 11.7403 11.8536 11.6465C11.7598 11.5528 11.6326 11.5001 11.5 11.5001H5.20751L12.2075 4.50009C12.3004 4.40723 12.3741 4.29698 12.4243 4.17564C12.4746 4.0543 12.5005 3.92425 12.5005 3.79291C12.5005 3.66156 12.4746 3.53151 12.4243 3.41017C12.3741 3.28883 12.3004 3.17858 12.2075 3.08572ZM10 5.29322L7.20751 2.50009L8.70751 1.00009L11.5 3.79322L10 5.29322Z" fill="black"/>
</svg>
