<svg width="14" height="9" viewBox="0 0 14 9" fill="none" xmlns="http://www.w3.org/2000/svg">
<path d="M14 1V5.5C14 5.63261 13.9474 5.75979 13.8536 5.85355C13.7598 5.94732 13.6326 6 13.5 6C13.3674 6 13.2402 5.94732 13.1465 5.85355C13.0527 5.75979 13 5.63261 13 5.5V2.20687L6.85378 8.35375C6.80735 8.40024 6.7522 8.43712 6.6915 8.46228C6.63081 8.48744 6.56574 8.50039 6.50003 8.50039C6.43433 8.50039 6.36926 8.48744 6.30856 8.46228C6.24786 8.43712 6.19272 8.40024 6.14628 8.35375L0.146284 2.35375C0.0524636 2.25993 -0.000244142 2.13268 -0.000244141 2C-0.000244139 1.86732 0.0524636 1.74007 0.146284 1.64625C0.240104 1.55243 0.367352 1.49972 0.500034 1.49972C0.632716 1.49972 0.759964 1.55243 0.853784 1.64625L6.50003 7.29313L12.2932 1.5H9.00003C8.86743 1.5 8.74025 1.44732 8.64648 1.35355C8.55271 1.25979 8.50003 1.13261 8.50003 1C8.50003 0.867392 8.55271 0.740215 8.64648 0.646447C8.74025 0.552679 8.86743 0.5 9.00003 0.5H13.5C13.6326 0.5 13.7598 0.552679 13.8536 0.646447C13.9474 0.740215 14 0.867392 14 1Z" fill="#161616"/>
</svg>
